ISO-10303-21;
HEADER;
/* Generated by software containing ST-Developer
 * from STEP Tools, Inc. (www.steptools.com) 
 */
/* OPTION: using custom renumber hook */

FILE_DESCRIPTION(
/* description */ ('STEP AP242 Edition 2',
'CAx-IF Rec.Pracs.---Representation and Presentation of Product Manufa
cturing Information (PMI)---4.0---2014-10-13',
'CAx-IF Rec.Pracs.---3D Tessellated Geometry---0.4---2014-09-14','2;1',
'CAx-IF Rec.Pracs.---User Defined Attributes---1.5---2016-08-15'),
/* implementation_level */ '2;1');

FILE_NAME(
/* name */ 'Part Studio 17 - Part 2',
/* time_stamp */ '2026-09-26T02:01:34Z',
/* author */ (''),
/* organization */ (''),
/* preprocessor_version */ 'ST-DEVELOPER v20',
/* originating_system */ 'ONSHAPE BY PTC INC, 1.221',
/* authorisation */ '  ');

FILE_SCHEMA (('AP242_MANAGED_MODEL_BASED_3D_ENGINEERING_MIM_LF { 1 0 10303 442 3 1 4 }'));
ENDSEC;

DATA;
#10=SHAPE_REPRESENTATION_RELATIONSHIP('','',#455,#11);
#11=ADVANCED_BREP_SHAPE_REPRESENTATION('',(#453),#761);
#12=B_SPLINE_CURVE_WITH_KNOTS('',3,(#746,#747,#748,#749,#750),
 .UNSPECIFIED.,.F.,.F.,(4,1,4),(-7.78297757697136E-6,0.0017414543947475,
0.00349069176707197),.UNSPECIFIED.);
#13=B_SPLINE_CURVE_WITH_KNOTS('',3,(#752,#753,#754,#755,#756),
 .UNSPECIFIED.,.F.,.F.,(4,1,4),(-7.78297757697136E-6,0.00174394149667736,
0.00349566597093169),.UNSPECIFIED.);
#14=TOROIDAL_SURFACE('',#498,0.0026,0.001);
#15=TOROIDAL_SURFACE('',#500,0.0026,0.001);
#16=TOROIDAL_SURFACE('',#501,0.0026,0.001);
#17=TOROIDAL_SURFACE('',#502,0.0026,0.001);
#18=ELLIPSE('',#484,0.00141421356237309,0.001);
#19=ELLIPSE('',#485,0.00141421356237309,0.001);
#20=ELLIPSE('',#487,0.00141421356237309,0.001);
#21=ELLIPSE('',#489,0.00141421356237309,0.001);
#22=ELLIPSE('',#492,0.00141421356237309,0.001);
#23=ELLIPSE('',#493,0.00141421356237309,0.001);
#24=ELLIPSE('',#495,0.00141421356237309,0.001);
#25=ELLIPSE('',#497,0.00141421356237309,0.001);
#26=CIRCLE('',#465,0.0016);
#27=CIRCLE('',#466,0.0016);
#28=CIRCLE('',#468,0.0016);
#29=CIRCLE('',#469,0.0016);
#30=CIRCLE('',#471,0.0016);
#31=CIRCLE('',#472,0.0016);
#32=CIRCLE('',#474,0.0016);
#33=CIRCLE('',#475,0.0016);
#34=CIRCLE('',#479,0.0026);
#35=CIRCLE('',#480,0.0026);
#36=CIRCLE('',#481,0.0026);
#37=CIRCLE('',#482,0.0026);
#38=CYLINDRICAL_SURFACE('',#464,0.0016);
#39=CYLINDRICAL_SURFACE('',#467,0.0016);
#40=CYLINDRICAL_SURFACE('',#470,0.0016);
#41=CYLINDRICAL_SURFACE('',#473,0.0016);
#42=CYLINDRICAL_SURFACE('',#483,0.001);
#43=CYLINDRICAL_SURFACE('',#486,0.001);
#44=CYLINDRICAL_SURFACE('',#488,0.001);
#45=CYLINDRICAL_SURFACE('',#490,0.001);
#46=CYLINDRICAL_SURFACE('',#491,0.001);
#47=CYLINDRICAL_SURFACE('',#494,0.001);
#48=CYLINDRICAL_SURFACE('',#496,0.001);
#49=CYLINDRICAL_SURFACE('',#499,0.001);
#50=ORIENTED_EDGE('',*,*,#162,.T.);
#51=ORIENTED_EDGE('',*,*,#163,.T.);
#52=ORIENTED_EDGE('',*,*,#164,.F.);
#53=ORIENTED_EDGE('',*,*,#165,.F.);
#54=ORIENTED_EDGE('',*,*,#166,.T.);
#55=ORIENTED_EDGE('',*,*,#167,.T.);
#56=ORIENTED_EDGE('',*,*,#162,.F.);
#57=ORIENTED_EDGE('',*,*,#168,.T.);
#58=ORIENTED_EDGE('',*,*,#169,.T.);
#59=ORIENTED_EDGE('',*,*,#170,.T.);
#60=ORIENTED_EDGE('',*,*,#166,.F.);
#61=ORIENTED_EDGE('',*,*,#171,.T.);
#62=ORIENTED_EDGE('',*,*,#172,.T.);
#63=ORIENTED_EDGE('',*,*,#173,.T.);
#64=ORIENTED_EDGE('',*,*,#174,.F.);
#65=ORIENTED_EDGE('',*,*,#175,.F.);
#66=ORIENTED_EDGE('',*,*,#176,.T.);
#67=ORIENTED_EDGE('',*,*,#177,.T.);
#68=ORIENTED_EDGE('',*,*,#172,.F.);
#69=ORIENTED_EDGE('',*,*,#178,.T.);
#70=ORIENTED_EDGE('',*,*,#179,.T.);
#71=ORIENTED_EDGE('',*,*,#180,.T.);
#72=ORIENTED_EDGE('',*,*,#176,.F.);
#73=ORIENTED_EDGE('',*,*,#181,.T.);
#74=ORIENTED_EDGE('',*,*,#174,.T.);
#75=ORIENTED_EDGE('',*,*,#182,.T.);
#76=ORIENTED_EDGE('',*,*,#179,.F.);
#77=ORIENTED_EDGE('',*,*,#183,.F.);
#78=ORIENTED_EDGE('',*,*,#184,.T.);
#79=ORIENTED_EDGE('',*,*,#185,.F.);
#80=ORIENTED_EDGE('',*,*,#186,.T.);
#81=ORIENTED_EDGE('',*,*,#187,.F.);
#82=ORIENTED_EDGE('',*,*,#188,.T.);
#83=ORIENTED_EDGE('',*,*,#189,.F.);
#84=ORIENTED_EDGE('',*,*,#190,.T.);
#85=ORIENTED_EDGE('',*,*,#191,.F.);
#86=ORIENTED_EDGE('',*,*,#164,.T.);
#87=ORIENTED_EDGE('',*,*,#192,.T.);
#88=ORIENTED_EDGE('',*,*,#169,.F.);
#89=ORIENTED_EDGE('',*,*,#193,.F.);
#90=ORIENTED_EDGE('',*,*,#191,.T.);
#91=ORIENTED_EDGE('',*,*,#189,.T.);
#92=ORIENTED_EDGE('',*,*,#187,.T.);
#93=ORIENTED_EDGE('',*,*,#185,.T.);
#94=ORIENTED_EDGE('',*,*,#175,.T.);
#95=ORIENTED_EDGE('',*,*,#183,.T.);
#96=ORIENTED_EDGE('',*,*,#181,.F.);
#97=ORIENTED_EDGE('',*,*,#178,.F.);
#98=ORIENTED_EDGE('',*,*,#165,.T.);
#99=ORIENTED_EDGE('',*,*,#193,.T.);
#100=ORIENTED_EDGE('',*,*,#171,.F.);
#101=ORIENTED_EDGE('',*,*,#168,.F.);
#102=ORIENTED_EDGE('',*,*,#194,.T.);
#103=ORIENTED_EDGE('',*,*,#195,.T.);
#104=ORIENTED_EDGE('',*,*,#196,.T.);
#105=ORIENTED_EDGE('',*,*,#197,.T.);
#106=ORIENTED_EDGE('',*,*,#198,.T.);
#107=ORIENTED_EDGE('',*,*,#199,.T.);
#108=ORIENTED_EDGE('',*,*,#200,.T.);
#109=ORIENTED_EDGE('',*,*,#201,.T.);
#110=ORIENTED_EDGE('',*,*,#202,.T.);
#111=ORIENTED_EDGE('',*,*,#203,.T.);
#112=ORIENTED_EDGE('',*,*,#204,.T.);
#113=ORIENTED_EDGE('',*,*,#205,.T.);
#114=ORIENTED_EDGE('',*,*,#206,.T.);
#115=ORIENTED_EDGE('',*,*,#207,.T.);
#116=ORIENTED_EDGE('',*,*,#208,.F.);
#117=ORIENTED_EDGE('',*,*,#173,.F.);
#118=ORIENTED_EDGE('',*,*,#209,.F.);
#119=ORIENTED_EDGE('',*,*,#196,.F.);
#120=ORIENTED_EDGE('',*,*,#209,.T.);
#121=ORIENTED_EDGE('',*,*,#177,.F.);
#122=ORIENTED_EDGE('',*,*,#210,.F.);
#123=ORIENTED_EDGE('',*,*,#197,.F.);
#124=ORIENTED_EDGE('',*,*,#208,.T.);
#125=ORIENTED_EDGE('',*,*,#195,.F.);
#126=ORIENTED_EDGE('',*,*,#211,.F.);
#127=ORIENTED_EDGE('',*,*,#182,.F.);
#128=ORIENTED_EDGE('',*,*,#210,.T.);
#129=ORIENTED_EDGE('',*,*,#180,.F.);
#130=ORIENTED_EDGE('',*,*,#211,.T.);
#131=ORIENTED_EDGE('',*,*,#194,.F.);
#132=ORIENTED_EDGE('',*,*,#212,.F.);
#133=ORIENTED_EDGE('',*,*,#205,.F.);
#134=ORIENTED_EDGE('',*,*,#213,.F.);
#135=ORIENTED_EDGE('',*,*,#192,.F.);
#136=ORIENTED_EDGE('',*,*,#213,.T.);
#137=ORIENTED_EDGE('',*,*,#204,.F.);
#138=ORIENTED_EDGE('',*,*,#214,.F.);
#139=ORIENTED_EDGE('',*,*,#170,.F.);
#140=ORIENTED_EDGE('',*,*,#212,.T.);
#141=ORIENTED_EDGE('',*,*,#163,.F.);
#142=ORIENTED_EDGE('',*,*,#215,.F.);
#143=ORIENTED_EDGE('',*,*,#206,.F.);
#144=ORIENTED_EDGE('',*,*,#186,.F.);
#145=ORIENTED_EDGE('',*,*,#216,.F.);
#146=ORIENTED_EDGE('',*,*,#200,.F.);
#147=ORIENTED_EDGE('',*,*,#217,.F.);
#148=ORIENTED_EDGE('',*,*,#201,.F.);
#149=ORIENTED_EDGE('',*,*,#216,.T.);
#150=ORIENTED_EDGE('',*,*,#207,.F.);
#151=ORIENTED_EDGE('',*,*,#215,.T.);
#152=ORIENTED_EDGE('',*,*,#167,.F.);
#153=ORIENTED_EDGE('',*,*,#214,.T.);
#154=ORIENTED_EDGE('',*,*,#203,.F.);
#155=ORIENTED_EDGE('',*,*,#202,.F.);
#156=ORIENTED_EDGE('',*,*,#217,.T.);
#157=ORIENTED_EDGE('',*,*,#184,.F.);
#158=ORIENTED_EDGE('',*,*,#198,.F.);
#159=ORIENTED_EDGE('',*,*,#188,.F.);
#160=ORIENTED_EDGE('',*,*,#199,.F.);
#161=ORIENTED_EDGE('',*,*,#190,.F.);
#162=EDGE_CURVE('',#218,#219,#256,.T.);
#163=EDGE_CURVE('',#219,#220,#257,.T.);
#164=EDGE_CURVE('',#221,#220,#258,.T.);
#165=EDGE_CURVE('',#218,#221,#259,.T.);
#166=EDGE_CURVE('',#222,#223,#260,.T.);
#167=EDGE_CURVE('',#223,#219,#261,.F.);
#168=EDGE_CURVE('',#218,#222,#262,.T.);
#169=EDGE_CURVE('',#224,#225,#263,.T.);
#170=EDGE_CURVE('',#225,#223,#264,.F.);
#171=EDGE_CURVE('',#222,#224,#265,.T.);
#172=EDGE_CURVE('',#226,#227,#266,.T.);
#173=EDGE_CURVE('',#227,#228,#267,.T.);
#174=EDGE_CURVE('',#229,#228,#268,.T.);
#175=EDGE_CURVE('',#226,#229,#269,.T.);
#176=EDGE_CURVE('',#230,#231,#270,.T.);
#177=EDGE_CURVE('',#231,#227,#271,.F.);
#178=EDGE_CURVE('',#226,#230,#272,.T.);
#179=EDGE_CURVE('',#232,#233,#273,.T.);
#180=EDGE_CURVE('',#233,#231,#274,.F.);
#181=EDGE_CURVE('',#230,#232,#275,.T.);
#182=EDGE_CURVE('',#228,#233,#276,.T.);
#183=EDGE_CURVE('',#229,#232,#277,.T.);
#184=EDGE_CURVE('',#234,#234,#26,.T.);
#185=EDGE_CURVE('',#235,#235,#27,.T.);
#186=EDGE_CURVE('',#236,#236,#28,.T.);
#187=EDGE_CURVE('',#237,#237,#29,.T.);
#188=EDGE_CURVE('',#238,#238,#30,.T.);
#189=EDGE_CURVE('',#239,#239,#31,.T.);
#190=EDGE_CURVE('',#240,#240,#32,.T.);
#191=EDGE_CURVE('',#241,#241,#33,.T.);
#192=EDGE_CURVE('',#220,#225,#278,.T.);
#193=EDGE_CURVE('',#221,#224,#279,.T.);
#194=EDGE_CURVE('',#242,#243,#280,.T.);
#195=EDGE_CURVE('',#243,#244,#281,.F.);
#196=EDGE_CURVE('',#244,#245,#282,.F.);
#197=EDGE_CURVE('',#245,#242,#283,.T.);
#198=EDGE_CURVE('',#246,#246,#34,.F.);
#199=EDGE_CURVE('',#247,#247,#35,.F.);
#200=EDGE_CURVE('',#248,#249,#36,.F.);
#201=EDGE_CURVE('',#249,#250,#284,.T.);
#202=EDGE_CURVE('',#250,#251,#37,.F.);
#203=EDGE_CURVE('',#251,#252,#285,.T.);
#204=EDGE_CURVE('',#252,#253,#286,.T.);
#205=EDGE_CURVE('',#253,#254,#287,.F.);
#206=EDGE_CURVE('',#254,#255,#288,.F.);
#207=EDGE_CURVE('',#255,#248,#289,.T.);
#208=EDGE_CURVE('',#228,#244,#18,.F.);
#209=EDGE_CURVE('',#245,#227,#19,.T.);
#210=EDGE_CURVE('',#242,#231,#20,.T.);
#211=EDGE_CURVE('',#233,#243,#21,.F.);
#212=EDGE_CURVE('',#254,#220,#22,.T.);
#213=EDGE_CURVE('',#225,#253,#23,.F.);
#214=EDGE_CURVE('',#223,#252,#24,.F.);
#215=EDGE_CURVE('',#255,#219,#25,.T.);
#216=EDGE_CURVE('',#249,#248,#12,.F.);
#217=EDGE_CURVE('',#250,#251,#13,.T.);
#218=VERTEX_POINT('',#634);
#219=VERTEX_POINT('',#635);
#220=VERTEX_POINT('',#637);
#221=VERTEX_POINT('',#639);
#222=VERTEX_POINT('',#643);
#223=VERTEX_POINT('',#644);
#224=VERTEX_POINT('',#649);
#225=VERTEX_POINT('',#650);
#226=VERTEX_POINT('',#655);
#227=VERTEX_POINT('',#656);
#228=VERTEX_POINT('',#658);
#229=VERTEX_POINT('',#660);
#230=VERTEX_POINT('',#664);
#231=VERTEX_POINT('',#665);
#232=VERTEX_POINT('',#670);
#233=VERTEX_POINT('',#671);
#234=VERTEX_POINT('',#679);
#235=VERTEX_POINT('',#681);
#236=VERTEX_POINT('',#684);
#237=VERTEX_POINT('',#686);
#238=VERTEX_POINT('',#689);
#239=VERTEX_POINT('',#691);
#240=VERTEX_POINT('',#694);
#241=VERTEX_POINT('',#696);
#242=VERTEX_POINT('',#703);
#243=VERTEX_POINT('',#704);
#244=VERTEX_POINT('',#706);
#245=VERTEX_POINT('',#708);
#246=VERTEX_POINT('',#711);
#247=VERTEX_POINT('',#713);
#248=VERTEX_POINT('',#715);
#249=VERTEX_POINT('',#716);
#250=VERTEX_POINT('',#718);
#251=VERTEX_POINT('',#720);
#252=VERTEX_POINT('',#722);
#253=VERTEX_POINT('',#724);
#254=VERTEX_POINT('',#726);
#255=VERTEX_POINT('',#728);
#256=LINE('',#633,#290);
#257=LINE('',#636,#291);
#258=LINE('',#638,#292);
#259=LINE('',#640,#293);
#260=LINE('',#642,#294);
#261=LINE('',#645,#295);
#262=LINE('',#646,#296);
#263=LINE('',#648,#297);
#264=LINE('',#651,#298);
#265=LINE('',#652,#299);
#266=LINE('',#654,#300);
#267=LINE('',#657,#301);
#268=LINE('',#659,#302);
#269=LINE('',#661,#303);
#270=LINE('',#663,#304);
#271=LINE('',#666,#305);
#272=LINE('',#667,#306);
#273=LINE('',#669,#307);
#274=LINE('',#672,#308);
#275=LINE('',#673,#309);
#276=LINE('',#675,#310);
#277=LINE('',#676,#311);
#278=LINE('',#698,#312);
#279=LINE('',#699,#313);
#280=LINE('',#702,#314);
#281=LINE('',#705,#315);
#282=LINE('',#707,#316);
#283=LINE('',#709,#317);
#284=LINE('',#717,#318);
#285=LINE('',#721,#319);
#286=LINE('',#723,#320);
#287=LINE('',#725,#321);
#288=LINE('',#727,#322);
#289=LINE('',#729,#323);
#290=VECTOR('',#507,1.);
#291=VECTOR('',#508,1.);
#292=VECTOR('',#509,1.);
#293=VECTOR('',#510,1.);
#294=VECTOR('',#513,1.);
#295=VECTOR('',#514,1.);
#296=VECTOR('',#515,1.);
#297=VECTOR('',#518,1.);
#298=VECTOR('',#519,1.);
#299=VECTOR('',#520,1.);
#300=VECTOR('',#523,1.);
#301=VECTOR('',#524,1.);
#302=VECTOR('',#525,1.);
#303=VECTOR('',#526,1.);
#304=VECTOR('',#529,1.);
#305=VECTOR('',#530,1.);
#306=VECTOR('',#531,1.);
#307=VECTOR('',#534,1.);
#308=VECTOR('',#535,1.);
#309=VECTOR('',#536,1.);
#310=VECTOR('',#539,1.);
#311=VECTOR('',#540,1.);
#312=VECTOR('',#567,1.);
#313=VECTOR('',#568,1.);
#314=VECTOR('',#573,1.);
#315=VECTOR('',#574,1.);
#316=VECTOR('',#575,1.);
#317=VECTOR('',#576,1.);
#318=VECTOR('',#583,1.);
#319=VECTOR('',#586,1.);
#320=VECTOR('',#587,1.);
#321=VECTOR('',#588,1.);
#322=VECTOR('',#589,1.);
#323=VECTOR('',#590,1.);
#324=EDGE_LOOP('',(#50,#51,#52,#53));
#325=EDGE_LOOP('',(#54,#55,#56,#57));
#326=EDGE_LOOP('',(#58,#59,#60,#61));
#327=EDGE_LOOP('',(#62,#63,#64,#65));
#328=EDGE_LOOP('',(#66,#67,#68,#69));
#329=EDGE_LOOP('',(#70,#71,#72,#73));
#330=EDGE_LOOP('',(#74,#75,#76,#77));
#331=EDGE_LOOP('',(#78));
#332=EDGE_LOOP('',(#79));
#333=EDGE_LOOP('',(#80));
#334=EDGE_LOOP('',(#81));
#335=EDGE_LOOP('',(#82));
#336=EDGE_LOOP('',(#83));
#337=EDGE_LOOP('',(#84));
#338=EDGE_LOOP('',(#85));
#339=EDGE_LOOP('',(#86,#87,#88,#89));
#340=EDGE_LOOP('',(#90));
#341=EDGE_LOOP('',(#91));
#342=EDGE_LOOP('',(#92));
#343=EDGE_LOOP('',(#93));
#344=EDGE_LOOP('',(#94,#95,#96,#97));
#345=EDGE_LOOP('',(#98,#99,#100,#101));
#346=EDGE_LOOP('',(#102,#103,#104,#105));
#347=EDGE_LOOP('',(#106));
#348=EDGE_LOOP('',(#107));
#349=EDGE_LOOP('',(#108,#109,#110,#111,#112,#113,#114,#115));
#350=EDGE_LOOP('',(#116,#117,#118,#119));
#351=EDGE_LOOP('',(#120,#121,#122,#123));
#352=EDGE_LOOP('',(#124,#125,#126,#127));
#353=EDGE_LOOP('',(#128,#129,#130,#131));
#354=EDGE_LOOP('',(#132,#133,#134,#135));
#355=EDGE_LOOP('',(#136,#137,#138,#139));
#356=EDGE_LOOP('',(#140,#141,#142,#143));
#357=EDGE_LOOP('',(#144));
#358=EDGE_LOOP('',(#145,#146));
#359=EDGE_LOOP('',(#147,#148,#149,#150,#151,#152,#153,#154));
#360=EDGE_LOOP('',(#155,#156));
#361=EDGE_LOOP('',(#157));
#362=EDGE_LOOP('',(#158));
#363=EDGE_LOOP('',(#159));
#364=EDGE_LOOP('',(#160));
#365=EDGE_LOOP('',(#161));
#366=FACE_BOUND('',#324,.T.);
#367=FACE_BOUND('',#325,.T.);
#368=FACE_BOUND('',#326,.T.);
#369=FACE_BOUND('',#327,.T.);
#370=FACE_BOUND('',#328,.T.);
#371=FACE_BOUND('',#329,.T.);
#372=FACE_BOUND('',#330,.T.);
#373=FACE_BOUND('',#331,.T.);
#374=FACE_BOUND('',#332,.T.);
#375=FACE_BOUND('',#333,.T.);
#376=FACE_BOUND('',#334,.T.);
#377=FACE_BOUND('',#335,.T.);
#378=FACE_BOUND('',#336,.T.);
#379=FACE_BOUND('',#337,.T.);
#380=FACE_BOUND('',#338,.T.);
#381=FACE_BOUND('',#339,.T.);
#382=FACE_BOUND('',#340,.T.);
#383=FACE_BOUND('',#341,.T.);
#384=FACE_BOUND('',#342,.T.);
#385=FACE_BOUND('',#343,.T.);
#386=FACE_BOUND('',#344,.T.);
#387=FACE_BOUND('',#345,.T.);
#388=FACE_BOUND('',#346,.T.);
#389=FACE_BOUND('',#347,.T.);
#390=FACE_BOUND('',#348,.T.);
#391=FACE_BOUND('',#349,.T.);
#392=FACE_BOUND('',#350,.T.);
#393=FACE_BOUND('',#351,.T.);
#394=FACE_BOUND('',#352,.T.);
#395=FACE_BOUND('',#353,.T.);
#396=FACE_BOUND('',#354,.T.);
#397=FACE_BOUND('',#355,.T.);
#398=FACE_BOUND('',#356,.T.);
#399=FACE_BOUND('',#357,.T.);
#400=FACE_BOUND('',#358,.T.);
#401=FACE_BOUND('',#359,.T.);
#402=FACE_BOUND('',#360,.T.);
#403=FACE_BOUND('',#361,.T.);
#404=FACE_BOUND('',#362,.T.);
#405=FACE_BOUND('',#363,.T.);
#406=FACE_BOUND('',#364,.T.);
#407=FACE_BOUND('',#365,.T.);
#408=PLANE('',#457);
#409=PLANE('',#458);
#410=PLANE('',#459);
#411=PLANE('',#460);
#412=PLANE('',#461);
#413=PLANE('',#462);
#414=PLANE('',#463);
#415=PLANE('',#476);
#416=PLANE('',#477);
#417=PLANE('',#478);
#418=ADVANCED_FACE('',(#366),#408,.F.);
#419=ADVANCED_FACE('',(#367),#409,.T.);
#420=ADVANCED_FACE('',(#368),#410,.T.);
#421=ADVANCED_FACE('',(#369),#411,.F.);
#422=ADVANCED_FACE('',(#370),#412,.T.);
#423=ADVANCED_FACE('',(#371),#413,.T.);
#424=ADVANCED_FACE('',(#372),#414,.F.);
#425=ADVANCED_FACE('',(#373,#374),#38,.F.);
#426=ADVANCED_FACE('',(#375,#376),#39,.F.);
#427=ADVANCED_FACE('',(#377,#378),#40,.F.);
#428=ADVANCED_FACE('',(#379,#380),#41,.F.);
#429=ADVANCED_FACE('',(#381),#415,.F.);
#430=ADVANCED_FACE('',(#382,#383,#384,#385,#386,#387),#416,.F.);
#431=ADVANCED_FACE('',(#388,#389,#390,#391),#417,.T.);
#432=ADVANCED_FACE('',(#392),#42,.T.);
#433=ADVANCED_FACE('',(#393),#43,.T.);
#434=ADVANCED_FACE('',(#394),#44,.T.);
#435=ADVANCED_FACE('',(#395),#45,.T.);
#436=ADVANCED_FACE('',(#396),#46,.T.);
#437=ADVANCED_FACE('',(#397),#47,.T.);
#438=ADVANCED_FACE('',(#398),#48,.T.);
#439=ADVANCED_FACE('',(#399,#400),#14,.T.);
#440=ADVANCED_FACE('',(#401),#49,.T.);
#441=ADVANCED_FACE('',(#402,#403),#15,.T.);
#442=ADVANCED_FACE('',(#404,#405),#16,.T.);
#443=ADVANCED_FACE('',(#406,#407),#17,.T.);
#444=CLOSED_SHELL('',(#418,#419,#420,#421,#422,#423,#424,#425,#426,#427,
#428,#429,#430,#431,#432,#433,#434,#435,#436,#437,#438,#439,#440,#441,#442,
#443));
#445=STYLED_ITEM('',(#446),#453);
#446=PRESENTATION_STYLE_ASSIGNMENT((#447));
#447=SURFACE_STYLE_USAGE(.BOTH.,#448);
#448=SURFACE_SIDE_STYLE('',(#449));
#449=SURFACE_STYLE_FILL_AREA(#450);
#450=FILL_AREA_STYLE('',(#451));
#451=FILL_AREA_STYLE_COLOUR('',#452);
#452=COLOUR_RGB('',0.890196078431373,0.698039215686275,0.63921568627451);
#453=MANIFOLD_SOLID_BREP('Part 2',#444);
#454=SHAPE_DEFINITION_REPRESENTATION(#766,#455);
#455=SHAPE_REPRESENTATION('Part 2',(#456),#761);
#456=AXIS2_PLACEMENT_3D('',#631,#503,#504);
#457=AXIS2_PLACEMENT_3D('',#632,#505,#506);
#458=AXIS2_PLACEMENT_3D('',#641,#511,#512);
#459=AXIS2_PLACEMENT_3D('',#647,#516,#517);
#460=AXIS2_PLACEMENT_3D('',#653,#521,#522);
#461=AXIS2_PLACEMENT_3D('',#662,#527,#528);
#462=AXIS2_PLACEMENT_3D('',#668,#532,#533);
#463=AXIS2_PLACEMENT_3D('',#674,#537,#538);
#464=AXIS2_PLACEMENT_3D('',#677,#541,#542);
#465=AXIS2_PLACEMENT_3D('',#678,#543,#544);
#466=AXIS2_PLACEMENT_3D('',#680,#545,#546);
#467=AXIS2_PLACEMENT_3D('',#682,#547,#548);
#468=AXIS2_PLACEMENT_3D('',#683,#549,#550);
#469=AXIS2_PLACEMENT_3D('',#685,#551,#552);
#470=AXIS2_PLACEMENT_3D('',#687,#553,#554);
#471=AXIS2_PLACEMENT_3D('',#688,#555,#556);
#472=AXIS2_PLACEMENT_3D('',#690,#557,#558);
#473=AXIS2_PLACEMENT_3D('',#692,#559,#560);
#474=AXIS2_PLACEMENT_3D('',#693,#561,#562);
#475=AXIS2_PLACEMENT_3D('',#695,#563,#564);
#476=AXIS2_PLACEMENT_3D('',#697,#565,#566);
#477=AXIS2_PLACEMENT_3D('',#700,#569,#570);
#478=AXIS2_PLACEMENT_3D('',#701,#571,#572);
#479=AXIS2_PLACEMENT_3D('',#710,#577,#578);
#480=AXIS2_PLACEMENT_3D('',#712,#579,#580);
#481=AXIS2_PLACEMENT_3D('',#714,#581,#582);
#482=AXIS2_PLACEMENT_3D('',#719,#584,#585);
#483=AXIS2_PLACEMENT_3D('',#730,#591,#592);
#484=AXIS2_PLACEMENT_3D('',#731,#593,#594);
#485=AXIS2_PLACEMENT_3D('',#732,#595,#596);
#486=AXIS2_PLACEMENT_3D('',#733,#597,#598);
#487=AXIS2_PLACEMENT_3D('',#734,#599,#600);
#488=AXIS2_PLACEMENT_3D('',#735,#601,#602);
#489=AXIS2_PLACEMENT_3D('',#736,#603,#604);
#490=AXIS2_PLACEMENT_3D('',#737,#605,#606);
#491=AXIS2_PLACEMENT_3D('',#738,#607,#608);
#492=AXIS2_PLACEMENT_3D('',#739,#609,#610);
#493=AXIS2_PLACEMENT_3D('',#740,#611,#612);
#494=AXIS2_PLACEMENT_3D('',#741,#613,#614);
#495=AXIS2_PLACEMENT_3D('',#742,#615,#616);
#496=AXIS2_PLACEMENT_3D('',#743,#617,#618);
#497=AXIS2_PLACEMENT_3D('',#744,#619,#620);
#498=AXIS2_PLACEMENT_3D('',#745,#621,#622);
#499=AXIS2_PLACEMENT_3D('',#751,#623,#624);
#500=AXIS2_PLACEMENT_3D('',#757,#625,#626);
#501=AXIS2_PLACEMENT_3D('',#758,#627,#628);
#502=AXIS2_PLACEMENT_3D('',#759,#629,#630);
#503=DIRECTION('',(0.,0.,1.));
#504=DIRECTION('',(1.,0.,0.));
#505=DIRECTION('',(1.,0.,0.));
#506=DIRECTION('',(0.,0.,-1.));
#507=DIRECTION('',(0.,0.,-1.));
#508=DIRECTION('',(0.,-1.,0.));
#509=DIRECTION('',(0.,0.,-1.));
#510=DIRECTION('',(0.,-1.,0.));
#511=DIRECTION('',(0.,1.,0.));
#512=DIRECTION('',(0.,0.,1.));
#513=DIRECTION('',(0.,0.,-1.));
#514=DIRECTION('',(1.,0.,0.));
#515=DIRECTION('',(1.,0.,0.));
#516=DIRECTION('',(1.,0.,0.));
#517=DIRECTION('',(0.,0.,-1.));
#518=DIRECTION('',(0.,0.,-1.));
#519=DIRECTION('',(0.,-1.,0.));
#520=DIRECTION('',(0.,-1.,0.));
#521=DIRECTION('',(-1.,0.,0.));
#522=DIRECTION('',(0.,0.,1.));
#523=DIRECTION('',(0.,0.,-1.));
#524=DIRECTION('',(0.,1.,0.));
#525=DIRECTION('',(0.,0.,-1.));
#526=DIRECTION('',(0.,1.,0.));
#527=DIRECTION('',(1.81836842345577E-16,1.,0.));
#528=DIRECTION('',(-1.,1.81836842345577E-16,0.));
#529=DIRECTION('',(0.,0.,-1.));
#530=DIRECTION('',(1.,-1.81836842345577E-16,0.));
#531=DIRECTION('',(1.,-1.81836842345577E-16,0.));
#532=DIRECTION('',(-1.,0.,0.));
#533=DIRECTION('',(0.,0.,1.));
#534=DIRECTION('',(0.,0.,-1.));
#535=DIRECTION('',(0.,1.,0.));
#536=DIRECTION('',(0.,1.,0.));
#537=DIRECTION('',(1.81836842345577E-16,1.,0.));
#538=DIRECTION('',(-1.,1.81836842345577E-16,0.));
#539=DIRECTION('',(1.,-1.81836842345577E-16,0.));
#540=DIRECTION('',(1.,-1.81836842345577E-16,0.));
#541=DIRECTION('',(0.,0.,-1.));
#542=DIRECTION('',(-1.,0.,0.));
#543=DIRECTION('',(0.,0.,-1.));
#544=DIRECTION('',(-1.,0.,0.));
#545=DIRECTION('',(0.,0.,-1.));
#546=DIRECTION('',(-1.,0.,0.));
#547=DIRECTION('',(0.,0.,-1.));
#548=DIRECTION('',(-1.,0.,0.));
#549=DIRECTION('',(0.,0.,-1.));
#550=DIRECTION('',(-1.,0.,0.));
#551=DIRECTION('',(0.,0.,-1.));
#552=DIRECTION('',(-1.,0.,0.));
#553=DIRECTION('',(0.,0.,-1.));
#554=DIRECTION('',(-1.,0.,0.));
#555=DIRECTION('',(0.,0.,-1.));
#556=DIRECTION('',(-1.,0.,0.));
#557=DIRECTION('',(0.,0.,-1.));
#558=DIRECTION('',(-1.,0.,0.));
#559=DIRECTION('',(0.,0.,-1.));
#560=DIRECTION('',(-1.,0.,0.));
#561=DIRECTION('',(0.,0.,-1.));
#562=DIRECTION('',(-1.,0.,0.));
#563=DIRECTION('',(0.,0.,-1.));
#564=DIRECTION('',(-1.,0.,0.));
#565=DIRECTION('',(0.,1.,0.));
#566=DIRECTION('',(0.,0.,1.));
#567=DIRECTION('',(1.,0.,0.));
#568=DIRECTION('',(1.,0.,0.));
#569=DIRECTION('',(0.,0.,-1.));
#570=DIRECTION('',(1.,0.,0.));
#571=DIRECTION('',(0.,0.,-1.));
#572=DIRECTION('',(1.,0.,0.));
#573=DIRECTION('',(0.,1.,0.));
#574=DIRECTION('',(1.,-1.81836842345577E-16,0.));
#575=DIRECTION('',(0.,1.,0.));
#576=DIRECTION('',(1.,-1.81836842345577E-16,0.));
#577=DIRECTION('',(0.,0.,-1.));
#578=DIRECTION('',(-1.,0.,0.));
#579=DIRECTION('',(0.,0.,-1.));
#580=DIRECTION('',(-1.,0.,0.));
#581=DIRECTION('',(0.,0.,-1.));
#582=DIRECTION('',(-1.,0.,0.));
#583=DIRECTION('',(1.,0.,0.));
#584=DIRECTION('',(0.,0.,-1.));
#585=DIRECTION('',(-1.,0.,0.));
#586=DIRECTION('',(1.,0.,0.));
#587=DIRECTION('',(0.,-1.,0.));
#588=DIRECTION('',(1.,0.,0.));
#589=DIRECTION('',(0.,-1.,0.));
#590=DIRECTION('',(1.,0.,0.));
#591=DIRECTION('',(0.,-1.,0.));
#592=DIRECTION('',(0.,0.,-1.));
#593=DIRECTION('',(-0.707106781186548,-0.707106781186548,0.));
#594=DIRECTION('',(0.707106781186548,-0.707106781186548,0.));
#595=DIRECTION('',(0.707106781186548,-0.707106781186548,0.));
#596=DIRECTION('',(-0.707106781186548,-0.707106781186548,0.));
#597=DIRECTION('',(1.,-1.81836842345577E-16,0.));
#598=DIRECTION('',(1.81836842345577E-16,1.,0.));
#599=DIRECTION('',(0.707106781186548,0.707106781186548,0.));
#600=DIRECTION('',(-0.707106781186548,0.707106781186548,0.));
#601=DIRECTION('',(-1.,1.81836842345577E-16,0.));
#602=DIRECTION('',(-1.81836842345577E-16,-1.,0.));
#603=DIRECTION('',(-0.707106781186548,0.707106781186548,0.));
#604=DIRECTION('',(0.707106781186548,0.707106781186548,0.));
#605=DIRECTION('',(0.,1.,0.));
#606=DIRECTION('',(0.,0.,1.));
#607=DIRECTION('',(-1.,0.,0.));
#608=DIRECTION('',(0.,0.,1.));
#609=DIRECTION('',(-0.707106781186548,0.707106781186548,0.));
#610=DIRECTION('',(0.707106781186548,0.707106781186548,0.));
#611=DIRECTION('',(-0.707106781186548,-0.707106781186548,0.));
#612=DIRECTION('',(-0.707106781186548,0.707106781186548,0.));
#613=DIRECTION('',(0.,-1.,0.));
#614=DIRECTION('',(0.,0.,-1.));
#615=DIRECTION('',(0.707106781186548,-0.707106781186548,0.));
#616=DIRECTION('',(-0.707106781186548,-0.707106781186548,0.));
#617=DIRECTION('',(0.,1.,0.));
#618=DIRECTION('',(0.,0.,1.));
#619=DIRECTION('',(0.707106781186548,0.707106781186548,0.));
#620=DIRECTION('',(-0.707106781186548,0.707106781186548,0.));
#621=DIRECTION('',(0.,0.,-1.));
#622=DIRECTION('',(-1.,0.,0.));
#623=DIRECTION('',(1.,0.,0.));
#624=DIRECTION('',(0.,0.,-1.));
#625=DIRECTION('',(0.,0.,-1.));
#626=DIRECTION('',(-1.,0.,0.));
#627=DIRECTION('',(0.,0.,-1.));
#628=DIRECTION('',(-1.,0.,0.));
#629=DIRECTION('',(0.,0.,-1.));
#630=DIRECTION('',(-1.,0.,0.));
#631=CARTESIAN_POINT('',(0.,0.,0.));
#632=CARTESIAN_POINT('',(-0.0567850921171155,-0.00863626452086404,0.0065));
#633=CARTESIAN_POINT('',(-0.0567850921171155,0.0343294904274997,0.0065));
#634=CARTESIAN_POINT('',(-0.0567850921171155,0.0343294904274997,0.0065));
#635=CARTESIAN_POINT('',(-0.0567850921171155,0.0343294904274997,0.0045));
#636=CARTESIAN_POINT('',(-0.0567850921171155,-0.0516020194692278,0.0045));
#637=CARTESIAN_POINT('',(-0.0567850921171155,-0.0516020194692278,0.0045));
#638=CARTESIAN_POINT('',(-0.0567850921171155,-0.0516020194692278,0.0065));
#639=CARTESIAN_POINT('',(-0.0567850921171155,-0.0516020194692278,0.0065));
#640=CARTESIAN_POINT('',(-0.0567850921171155,-0.00863626452086404,0.0065));
#641=CARTESIAN_POINT('',(-3.50921171154705E-5,0.0343294904274997,0.0065));
#642=CARTESIAN_POINT('',(0.0567149078828846,0.0343294904274997,0.0065));
#643=CARTESIAN_POINT('',(0.0567149078828846,0.0343294904274997,0.0065));
#644=CARTESIAN_POINT('',(0.0567149078828846,0.0343294904274997,0.0045));
#645=CARTESIAN_POINT('',(-3.50921171154705E-5,0.0343294904274997,0.0045));
#646=CARTESIAN_POINT('',(-3.50921171154705E-5,0.0343294904274997,0.0065));
#647=CARTESIAN_POINT('',(0.0567149078828846,-0.00863626452086404,0.0065));
#648=CARTESIAN_POINT('',(0.0567149078828846,-0.0516020194692278,0.0065));
#649=CARTESIAN_POINT('',(0.0567149078828846,-0.0516020194692278,0.0065));
#650=CARTESIAN_POINT('',(0.0567149078828846,-0.0516020194692278,0.0045));
#651=CARTESIAN_POINT('',(0.0567149078828846,-0.00863626452086404,0.0045));
#652=CARTESIAN_POINT('',(0.0567149078828846,-0.00863626452086404,0.0065));
#653=CARTESIAN_POINT('',(-0.0388650921171154,-0.0029372110479009,0.0065));
#654=CARTESIAN_POINT('',(-0.0388650921171154,-0.012392402626574,0.0065));
#655=CARTESIAN_POINT('',(-0.0388650921171154,-0.012392402626574,0.0065));
#656=CARTESIAN_POINT('',(-0.0388650921171154,-0.012392402626574,0.0045));
#657=CARTESIAN_POINT('',(-0.0388650921171154,0.00651798053077224,0.0045));
#658=CARTESIAN_POINT('',(-0.0388650921171154,0.00651798053077224,0.0045));
#659=CARTESIAN_POINT('',(-0.0388650921171154,0.00651798053077224,0.0065));
#660=CARTESIAN_POINT('',(-0.0388650921171154,0.00651798053077224,0.0065));
#661=CARTESIAN_POINT('',(-0.0388650921171154,-0.0029372110479009,0.0065));
#662=CARTESIAN_POINT('',(-0.000705092117115454,-0.012392402626574,0.0065));
#663=CARTESIAN_POINT('',(0.0374549078828846,-0.0123924026265741,0.0065));
#664=CARTESIAN_POINT('',(0.0374549078828846,-0.0123924026265741,0.0065));
#665=CARTESIAN_POINT('',(0.0374549078828846,-0.0123924026265741,0.0045));
#666=CARTESIAN_POINT('',(-0.000705092117115454,-0.012392402626574,0.0045));
#667=CARTESIAN_POINT('',(-0.000705092117115454,-0.012392402626574,0.0065));
#668=CARTESIAN_POINT('',(0.0374549078828846,-0.00293721104790092,0.0065));
#669=CARTESIAN_POINT('',(0.0374549078828846,0.00651798053077222,0.0065));
#670=CARTESIAN_POINT('',(0.0374549078828846,0.00651798053077222,0.0065));
#671=CARTESIAN_POINT('',(0.0374549078828846,0.00651798053077222,0.0045));
#672=CARTESIAN_POINT('',(0.0374549078828846,-0.00293721104790092,0.0045));
#673=CARTESIAN_POINT('',(0.0374549078828846,-0.00293721104790092,0.0065));
#674=CARTESIAN_POINT('',(-0.000705092117115454,0.00651798053077224,0.0065));
#675=CARTESIAN_POINT('',(0.0374549078828846,0.00651798053077223,0.0045));
#676=CARTESIAN_POINT('',(-0.000705092117115454,0.00651798053077224,0.0065));
#677=CARTESIAN_POINT('',(0.0525375302868411,0.0313769808038671,0.0065));
#678=CARTESIAN_POINT('',(0.0525375302868411,0.0313769808038671,0.0045));
#679=CARTESIAN_POINT('',(0.0509375302868411,0.0313769808038671,0.0045));
#680=CARTESIAN_POINT('',(0.0525375302868411,0.0313769808038671,0.0065));
#681=CARTESIAN_POINT('',(0.0509375302868411,0.0313769808038671,0.0065));
#682=CARTESIAN_POINT('',(-0.0531753580674673,0.0313769808038671,0.0065));
#683=CARTESIAN_POINT('',(-0.0531753580674673,0.0313769808038671,0.0045));
#684=CARTESIAN_POINT('',(-0.0547753580674673,0.0313769808038671,0.0045));
#685=CARTESIAN_POINT('',(-0.0531753580674673,0.0313769808038671,0.0065));
#686=CARTESIAN_POINT('',(-0.0547753580674673,0.0313769808038671,0.0065));
#687=CARTESIAN_POINT('',(0.0525375302868411,-0.0436020194692278,0.0065));
#688=CARTESIAN_POINT('',(0.0525375302868411,-0.0436020194692278,0.0045));
#689=CARTESIAN_POINT('',(0.0509375302868411,-0.0436020194692278,0.0045));
#690=CARTESIAN_POINT('',(0.0525375302868411,-0.0436020194692278,0.0065));
#691=CARTESIAN_POINT('',(0.0509375302868411,-0.0436020194692278,0.0065));
#692=CARTESIAN_POINT('',(-0.0531753580674673,-0.0436020194692278,0.0065));
#693=CARTESIAN_POINT('',(-0.0531753580674673,-0.0436020194692278,0.0045));
#694=CARTESIAN_POINT('',(-0.0547753580674673,-0.0436020194692278,0.0045));
#695=CARTESIAN_POINT('',(-0.0531753580674673,-0.0436020194692278,0.0065));
#696=CARTESIAN_POINT('',(-0.0547753580674673,-0.0436020194692278,0.0065));
#697=CARTESIAN_POINT('',(-3.50921171154567E-5,-0.0516020194692278,0.0065));
#698=CARTESIAN_POINT('',(0.0567149078828846,-0.0516020194692278,0.0045));
#699=CARTESIAN_POINT('',(-3.50921171154567E-5,-0.0516020194692278,0.0065));
#700=CARTESIAN_POINT('',(-3.50921171154636E-5,-0.00863626452086404,0.0065));
#701=CARTESIAN_POINT('',(-3.50921171154636E-5,-0.00863626452086404,0.0035));
#702=CARTESIAN_POINT('',(0.0384549078828846,-0.00863626452086404,0.0035));
#703=CARTESIAN_POINT('',(0.0384549078828846,-0.0133924026265741,0.0035));
#704=CARTESIAN_POINT('',(0.0384549078828846,0.00751798053077223,0.0035));
#705=CARTESIAN_POINT('',(-0.0388650921171154,0.00751798053077224,0.0035));
#706=CARTESIAN_POINT('',(-0.0398650921171154,0.00751798053077224,0.0035));
#707=CARTESIAN_POINT('',(-0.0398650921171154,-0.012392402626574,0.0035));
#708=CARTESIAN_POINT('',(-0.0398650921171154,-0.013392402626574,0.0035));
#709=CARTESIAN_POINT('',(-3.50921171154645E-5,-0.013392402626574,0.0035));
#710=CARTESIAN_POINT('',(0.0525375302868411,-0.0436020194692278,0.0035));
#711=CARTESIAN_POINT('',(0.0499375302868411,-0.0436020194692278,0.0035));
#712=CARTESIAN_POINT('',(-0.0531753580674673,-0.0436020194692278,0.0035));
#713=CARTESIAN_POINT('',(-0.0557753580674673,-0.0436020194692278,0.0035));
#714=CARTESIAN_POINT('',(-0.0531753580674673,0.0313769808038671,0.0035));
#715=CARTESIAN_POINT('',(-0.0548922465815013,0.0333294904274997,0.0035));
#716=CARTESIAN_POINT('',(-0.0514584695534333,0.0333294904274997,0.0035));
#717=CARTESIAN_POINT('',(-3.50921171154636E-5,0.0333294904274997,0.0035));
#718=CARTESIAN_POINT('',(0.0508206417728071,0.0333294904274997,0.0035));
#719=CARTESIAN_POINT('',(0.0525375302868411,0.0313769808038671,0.0035));
#720=CARTESIAN_POINT('',(0.0542544188008751,0.0333294904274997,0.0035));
#721=CARTESIAN_POINT('',(-3.50921171154636E-5,0.0333294904274997,0.0035));
#722=CARTESIAN_POINT('',(0.0557149078828845,0.0333294904274997,0.0035));
#723=CARTESIAN_POINT('',(0.0557149078828845,-0.00863626452086404,0.0035));
#724=CARTESIAN_POINT('',(0.0557149078828845,-0.0506020194692278,0.0035));
#725=CARTESIAN_POINT('',(-0.0567850921171155,-0.0506020194692278,0.0035));
#726=CARTESIAN_POINT('',(-0.0557850921171155,-0.0506020194692278,0.0035));
#727=CARTESIAN_POINT('',(-0.0557850921171155,0.0343294904274997,0.0035));
#728=CARTESIAN_POINT('',(-0.0557850921171155,0.0333294904274997,0.0035));
#729=CARTESIAN_POINT('',(-3.50921171154636E-5,0.0333294904274997,0.0035));
#730=CARTESIAN_POINT('',(-0.0398650921171154,-0.0029372110479009,0.0045));
#731=CARTESIAN_POINT('',(-0.0398650921171154,0.00751798053077224,0.0045));
#732=CARTESIAN_POINT('',(-0.0398650921171154,-0.013392402626574,0.0045));
#733=CARTESIAN_POINT('',(-3.50921171154645E-5,-0.013392402626574,0.0045));
#734=CARTESIAN_POINT('',(0.0384549078828846,-0.0133924026265741,0.0045));
#735=CARTESIAN_POINT('',(-0.000705092117115453,0.00751798053077224,0.0045));
#736=CARTESIAN_POINT('',(0.0384549078828846,0.00751798053077223,0.0045));
#737=CARTESIAN_POINT('',(0.0384549078828846,-0.00863626452086404,0.0045));
#738=CARTESIAN_POINT('',(-3.50921171154567E-5,-0.0506020194692278,0.0045));
#739=CARTESIAN_POINT('',(-0.0557850921171155,-0.0506020194692278,0.0045));
#740=CARTESIAN_POINT('',(0.0557149078828845,-0.0506020194692278,0.0045));
#741=CARTESIAN_POINT('',(0.0557149078828845,-0.00863626452086404,0.0045));
#742=CARTESIAN_POINT('',(0.0557149078828845,0.0333294904274997,0.0045));
#743=CARTESIAN_POINT('',(-0.0557850921171155,-0.00863626452086404,0.0045));
#744=CARTESIAN_POINT('',(-0.0557850921171155,0.0333294904274997,0.0045));
#745=CARTESIAN_POINT('',(-0.0531753580674673,0.0313769808038671,0.0045));
#746=CARTESIAN_POINT('',(-0.0548922465815013,0.0333294904274997,0.0035));
#747=CARTESIAN_POINT('',(-0.0543465315292088,0.0335348594268819,0.0035));
#748=CARTESIAN_POINT('',(-0.0531735354991015,0.0337716116220715,0.0036077113199256));
#749=CARTESIAN_POINT('',(-0.0520041846057258,0.0335348594268819,0.0035));
#750=CARTESIAN_POINT('',(-0.0514584695534333,0.0333294904274997,0.0035));
#751=CARTESIAN_POINT('',(-3.50921171154636E-5,0.0333294904274997,0.0045));
#752=CARTESIAN_POINT('',(0.0508206417728071,0.0333294904274997,0.0035));
#753=CARTESIAN_POINT('',(0.0513671327340649,0.0335351514247792,0.0035));
#754=CARTESIAN_POINT('',(0.0525443605160935,0.0337713172447008,0.00360771050573509));
#755=CARTESIAN_POINT('',(0.0537079278396185,0.0335351514247824,0.0035));
#756=CARTESIAN_POINT('',(0.0542544188008751,0.0333294904274997,0.0035));
#757=CARTESIAN_POINT('',(0.0525375302868411,0.0313769808038671,0.0045));
#758=CARTESIAN_POINT('',(0.0525375302868411,-0.0436020194692278,0.0045));
#759=CARTESIAN_POINT('',(-0.0531753580674673,-0.0436020194692278,0.0045));
#760=MECHANICAL_DESIGN_GEOMETRIC_PRESENTATION_REPRESENTATION('',(#445),
#761);
#761=(
GEOMETRIC_REPRESENTATION_CONTEXT(3)
GLOBAL_UNCERTAINTY_ASSIGNED_CONTEXT((#762))
GLOBAL_UNIT_ASSIGNED_CONTEXT((#765,#764,#763))
REPRESENTATION_CONTEXT('Part 2','TOP_LEVEL_ASSEMBLY_PART')
);
#762=UNCERTAINTY_MEASURE_WITH_UNIT(LENGTH_MEASURE(2.E-5),#765,
'DISTANCE_ACCURACY_VALUE','Maximum Tolerance applied to model');
#763=(
NAMED_UNIT(*)
SI_UNIT($,.STERADIAN.)
SOLID_ANGLE_UNIT()
);
#764=(
NAMED_UNIT(*)
PLANE_ANGLE_UNIT()
SI_UNIT($,.RADIAN.)
);
#765=(
LENGTH_UNIT()
NAMED_UNIT(*)
SI_UNIT($,.METRE.)
);
#766=PRODUCT_DEFINITION_SHAPE('','',#767);
#767=PRODUCT_DEFINITION('','',#769,#768);
#768=PRODUCT_DEFINITION_CONTEXT('',#775,'design');
#769=PRODUCT_DEFINITION_FORMATION_WITH_SPECIFIED_SOURCE('','',#771,
 .NOT_KNOWN.);
#770=PRODUCT_RELATED_PRODUCT_CATEGORY('','',(#771));
#771=PRODUCT('Part 2','Part 2','Part 2',(#773));
#772=PRODUCT_CATEGORY('','');
#773=PRODUCT_CONTEXT('',#775,'mechanical');
#774=APPLICATION_PROTOCOL_DEFINITION('international standard',
'ap242_managed_model_based_3d_engineering',2020,#775);
#775=APPLICATION_CONTEXT('managed model based 3d engineering');
ENDSEC;
END-ISO-10303-21;
